<?xml version="1.0" encoding="UTF-8"?>
<svg width="2343px" height="719px" viewBox="0 0 2343 719" version="1.1" xmlns="http://www.w3.org/2000/svg" xmlns:xlink="http://www.w3.org/1999/xlink">
    <!-- Generator: Sketch 48.2 (47327) - http://www.bohemiancoding.com/sketch -->
    <title>Bits Logo - Horizontal</title>
    <desc>Created with Sketch.</desc>
    <defs>
        <polygon id="path-1" points="0.636309503 0.42 757.743821 0.42 757.743821 400 0.636309503 400"></polygon>
    </defs>
    <g id="Page-1" stroke="none" stroke-width="1" fill="none" fill-rule="evenodd">
        <g id="Bits-Logo---Horizontal">
            <path d="M1079.1576,322.1348 C1079.2656,314.6628 1077.8126,308.2628 1074.7966,302.9318 C1071.7816,297.6108 1068.0386,293.2368 1063.5796,289.8198 C1059.1176,286.4068 1054.2546,283.8838 1048.9976,282.2618 C1043.7346,280.6398 1039.0416,279.7998 1034.9226,279.7388 C1029.7616,279.6638 1024.7266,280.3638 1019.8126,281.8398 C1014.8916,283.3148 1010.0986,285.0528 1005.4326,287.0458 L1001.8716,372.8258 C1007.7966,372.9098 1015.1486,372.5048 1023.9286,371.5988 C1032.6996,370.6988 1041.1776,368.5618 1049.3446,365.1998 C1057.5126,361.8388 1064.4766,356.7848 1070.2476,350.0358 C1076.0126,343.2948 1078.9876,333.9918 1079.1576,322.1348 M1022.4466,447.3568 C1014.9676,447.2488 1007.7446,447.9178 1000.7646,449.3638 L997.9446,537.4768 C1001.8006,538.3038 1005.5856,539.0728 1009.3156,539.7648 C1013.0386,540.4678 1016.7086,540.8408 1020.3216,540.8918 C1025.7306,540.9708 1031.6646,540.4768 1038.1256,539.4088 C1044.5806,538.3428 1050.6736,536.1118 1056.3936,532.7178 C1062.1096,529.3188 1066.8846,524.6858 1070.7066,518.8098 C1074.5266,512.9388 1076.5116,505.1068 1076.6536,495.3128 C1076.7946,485.5208 1075.0386,477.5028 1071.3946,471.2638 C1067.7466,465.0238 1063.2436,460.1258 1057.8826,456.5718 C1052.5206,453.0118 1046.6236,450.6068 1040.2006,449.3528 C1033.7726,448.1018 1027.8576,447.4358 1022.4466,447.3568 M1272.3426,545.3118 C1272.0316,566.7048 1267.8336,585.0698 1259.7526,600.4188 C1251.6646,615.7658 1240.9776,628.7568 1227.6766,639.3898 C1214.3786,650.0238 1199.1086,658.6348 1181.8756,665.2108 C1164.6366,671.7948 1146.7166,676.8828 1128.1066,680.4798 C1109.4966,684.0758 1090.8356,686.3808 1072.1366,687.4028 C1053.4306,688.4188 1035.9666,688.8118 1019.7306,688.5768 C1003.7486,688.3458 987.1996,687.5278 970.0836,686.1198 C952.9576,684.7128 935.9196,682.4668 918.9516,679.3878 C901.9836,676.3108 885.2846,672.2678 868.8656,667.2568 C852.4376,662.2528 836.9356,656.0368 822.3496,648.6088 L825.6236,394.9898 L826.2506,346.4148 L826.7846,305.0398 L828.7756,150.7148 C843.2946,144.9988 858.7056,139.8738 875.0106,135.3378 C891.3136,130.8078 907.9276,127.0528 924.8536,124.0718 C941.7776,121.0968 958.6276,118.8938 975.4066,117.4568 C992.1786,116.0258 1008.4276,115.4218 1024.1486,115.6498 C1042.4446,115.9138 1060.9176,117.3418 1079.5686,119.9298 C1098.2176,122.5208 1116.1366,126.6438 1133.3266,132.3068 C1150.5096,137.9678 1166.5166,145.2248 1181.3416,154.0728 C1196.1576,162.9258 1209.0876,173.7448 1220.1146,186.5308 C1231.1406,199.3238 1239.6856,214.1388 1245.7626,230.9778 C1251.8316,247.8238 1254.7126,267.1988 1254.3946,289.0988 C1254.1866,303.5338 1251.9256,317.0338 1247.6236,329.5968 C1243.3156,342.1668 1237.2266,353.4178 1229.3476,363.3578 C1221.4716,373.2958 1211.9396,381.7308 1200.7606,388.6538 C1189.5726,395.5848 1177.0016,400.6228 1163.0356,403.7678 C1179.7226,408.3958 1194.8976,415.0548 1208.5636,423.7578 C1222.2246,432.4608 1233.8046,442.9418 1243.2936,455.1898 C1252.7816,467.4478 1260.0566,481.2088 1265.1196,496.4898 C1270.1796,511.7758 1272.5916,528.0488 1272.3426,545.3118" id="Fill-1" fill="#753E3E"></path>
            <polygon id="Fill-3" fill="#753E3E" points="1506.5902 128.3956 1454.9872 669.6596 1286.9622 675.9856 1294.7642 136.4756"></polygon>
            <polygon id="Fill-5" fill="#753E3E" points="1960.1312 127.5435 1953.7132 296.1855 1837.0132 299.2445 1801.3212 675.9855 1633.2942 682.3135 1639.5452 305.1425 1520.8872 309.7945 1547.7292 122.0685"></polygon>
            <path d="M2342.4153,467.8555 C2341.8903,504.1985 2335.1273,535.8665 2322.1393,562.8705 C2309.1463,589.8795 2291.5773,612.2415 2269.4353,629.9585 C2247.2903,647.6835 2221.4953,660.8405 2192.0613,669.4305 C2162.6173,678.0235 2131.0533,682.0785 2097.3713,681.5935 C2084.3703,681.4045 2070.1413,679.4705 2054.6753,675.8025 C2039.2073,672.1335 2023.5543,667.5905 2007.7123,662.1875 C1991.8723,656.7865 1976.6373,650.9955 1962.0023,644.8135 C1947.3673,638.6325 1915.0273,632.8125 1903.7053,627.3365 L1942.9333,463.6685 C1965.2783,477.5235 1990.1353,488.1675 2017.4843,495.5875 C2044.8373,503.0185 2071.7703,506.9195 2098.2993,507.3035 C2103.3343,507.3765 2109.4413,507.2675 2116.6083,506.9705 C2123.7763,506.6765 2130.6183,505.5825 2137.1513,503.6865 C2143.6773,501.7905 2149.2223,498.8855 2153.7923,494.9725 C2158.3563,491.0595 2160.6973,485.3935 2160.8053,477.9635 C2160.8783,472.9285 2159.3493,468.5905 2156.2173,464.9615 C2153.0843,461.3355 2149.0123,458.3615 2144.0073,456.0325 C2139.0003,453.7075 2133.3233,451.8965 2126.9763,450.6125 C2120.6283,449.3265 2114.4023,448.3775 2108.3113,447.7545 C2102.2163,447.1395 2096.5193,446.7875 2091.2163,446.7125 C2085.9093,446.6345 2081.6693,446.5745 2078.4853,446.5275 C2055.6703,446.1985 2034.9753,441.9185 2016.3913,433.6915 C1997.8053,425.4635 1981.9163,414.1595 1968.7303,399.7725 C1955.5353,385.3925 1945.3673,368.3945 1938.2263,348.7925 C1931.0793,329.1885 1927.6743,307.9865 1928.0053,285.1725 C1928.4583,253.8755 1935.1613,225.9165 1948.1183,201.2945 C1961.0723,176.6785 1978.2263,155.8335 1999.5633,138.7645 C2020.9023,121.7005 2045.2963,108.7215 2072.7533,99.8285 C2100.2043,90.9415 2128.5203,86.7065 2157.7013,87.1285 C2170.6933,87.3155 2184.0843,87.9775 2197.8653,89.1025 C2211.6413,90.2335 2225.3433,92.0865 2238.9733,94.6705 C2252.5983,97.2555 2265.8803,100.5005 2278.8273,104.4005 C2291.7663,108.3065 2304.0323,113.1205 2315.6273,118.8615 L2298.1703,280.1765 C2280.2193,273.8175 2261.3933,268.4405 2241.6963,264.0385 C2221.9923,259.6435 2202.7273,257.3075 2183.8943,257.0355 C2180.4463,256.9845 2175.9983,256.9885 2170.5633,257.0415 C2165.1223,257.0995 2159.4163,257.4155 2153.4383,257.9875 C2147.4593,258.5675 2141.4103,259.4735 2135.2933,260.7105 C2129.1683,261.9515 2123.7103,263.6625 2118.9013,265.8465 C2114.0953,268.0335 2110.2023,270.9605 2107.2353,274.6295 C2104.2593,278.3075 2102.8733,282.6625 2103.0673,287.7035 C2103.2433,293.5425 2105.3643,298.2815 2109.4263,301.9225 C2113.4853,305.5625 2118.7473,308.4235 2125.2213,310.5065 C2131.6893,312.5895 2138.8303,314.0875 2146.6443,314.9955 C2154.4553,315.9055 2162.2063,316.4815 2169.9003,316.7255 C2177.5893,316.9735 2184.7483,317.0765 2191.3853,317.0355 C2198.0153,317.0015 2203.4493,317.2785 2207.6893,317.8685 C2228.8883,319.5055 2247.9193,324.2875 2264.7863,332.2235 C2281.6463,340.1655 2295.8913,350.5815 2307.5133,363.4845 C2319.1263,376.3875 2327.9293,391.7045 2333.9083,409.4305 C2339.8823,427.1655 2342.7233,446.6365 2342.4153,467.8555" id="Fill-7" fill="#753E3E"></path>
            <path d="M660.2484,243.9166 C664.8504,238.1496 668.5584,232.1036 671.4234,225.8576 C665.2984,162.4656 657.9684,71.3246 626.9634,52.8536 C599.2134,36.3216 529.5044,1.8386 479.5234,13.2726 C479.5234,13.2726 399.2934,65.4336 391.3054,116.7286 C383.3164,168.0226 408.3814,236.6296 418.5624,299.1226 C447.1724,306.8636 570.4484,333.9326 644.8324,261.0196 C650.1404,255.8166 655.2914,250.1296 660.2484,243.9166" id="Fill-9" fill="#FEFEFE"></path>
            <path d="M847.8519,404.6807 L844.0299,383.0287 L797.3579,337.2417 L754.0719,317.7037 L786.0499,305.0307 L837.3759,255.9147 L849.8449,220.7887 L854.2439,177.1117 L849.2699,131.8917 L824.8249,97.7667 L787.9649,83.9427 L751.2299,95.4267 L724.4139,126.7447 L704.3009,151.7797 L686.7899,188.8367 L649.3789,251.5197 C649.3789,251.5197 572.6919,310.8637 499.1899,304.2057 C426.6859,297.6387 374.9679,275.7187 350.2089,275.1377 L293.9569,250.3307 L273.9119,241.2277 L223.5209,196.0927 L165.0789,149.3497 L122.0329,137.4247 L78.8399,151.7797 L46.1009,177.1117 L23.2649,227.1317 L13.8309,289.3447 L28.9569,330.3137 L52.4289,360.1657 L88.9579,371.2507 L134.0679,374.2217 L175.4159,367.6317 L158.6979,394.2617 L139.7489,449.2027 L134.0679,548.3427 L172.6529,634.1957 C172.6529,634.1957 193.1869,653.0897 224.6819,672.7487 C238.0209,681.0757 253.9949,685.8747 267.9799,688.6417 C287.0159,692.4087 302.3669,692.4097 302.3669,692.4097 C302.3669,692.4097 256.6989,680.8517 228.9749,656.2577 C169.5829,603.5687 193.0809,520.1757 193.0809,520.1757 L169.7059,507.2487 L167.9479,506.2767 L169.3749,505.8827 L198.1859,497.9367 L171.2399,476.7647 L200.7219,472.3787 C234.5379,434.3717 460.3379,472.6057 485.9569,479.8157 C487.2489,480.1787 523.5139,490.7057 555.7679,488.2447 C583.9959,486.0927 608.7459,470.9887 609.6719,470.2947 C638.2059,448.9407 756.4419,380.6927 805.2699,397.3607 C811.3979,399.4517 815.5079,405.2597 815.3599,411.7337 C815.3579,411.8227 815.3559,411.8677 815.3559,411.8677 L834.6899,417.5357 L817.5199,436.4807 L837.4989,445.9577 L821.8759,457.8987 C821.8759,457.8987 841.9289,538.2117 791.2449,588.9537 C781.3179,598.8937 768.6949,606.6207 757.3849,612.2437 C741.7429,620.0207 728.6139,623.7707 728.6139,623.7707 C728.6139,623.7707 768.0329,623.7707 794.9089,604.8367 C821.7859,585.9037 839.3099,567.7077 839.3099,567.7077 L844.8709,547.4097 L862.0069,484.8537 L847.8519,404.6807 Z" id="Fill-11" fill="#DFAE7D"></path>
            <path d="M821.8763,457.899 L837.4993,445.958 L817.5203,436.481 L834.6893,417.536 L815.3553,411.867 C815.3553,411.867 815.3573,411.822 815.3593,411.734 C815.5083,405.26 811.3973,399.452 805.2703,397.36 C756.4413,380.692 638.2063,448.941 609.6723,470.295 C608.7453,470.988 583.9953,486.093 555.7683,488.245 C523.5143,490.706 487.2493,480.179 485.9573,479.816 C460.3383,472.606 234.5373,434.372 200.7223,472.379 L171.2393,476.765 L198.1863,497.937 L169.3753,505.883 C169.4813,506.34 169.5963,506.794 169.7063,507.249 L193.0803,520.176 C193.0803,520.176 169.5833,603.568 228.9753,656.257 C256.6983,680.852 302.3663,692.409 302.3663,692.409 C302.3663,692.409 287.0163,692.408 267.9803,688.642 C289.5643,696.908 313.5233,701.79 338.8323,702.389 C391.9613,703.647 440.0463,685.798 473.1693,656.548 L482.1163,645.868 L492.1553,624.497 C492.1553,624.497 501.8073,624.861 504.3503,623.74 C506.8933,622.619 508.7293,634.381 508.7293,634.381 L514.6963,647.68 L566.0783,645.726 L601.2303,641.308 L612.8903,629.299 L619.4073,604.213 L654.6623,596.364 L664.6053,604.869 C664.6793,604.766 664.7553,604.665 664.8273,604.562 C681.4213,611.844 699.6793,616.085 718.9183,616.54 C732.2003,616.854 745.1013,615.341 757.3853,612.243 C768.6943,606.621 781.3173,598.894 791.2443,588.954 C841.9293,538.212 821.8763,457.899 821.8763,457.899" id="Fill-13" fill="#FEFEFE"></path>
            <path d="M619.4076,604.2135 L612.8896,629.2985 L601.2296,641.3075 L566.0786,645.7265 L514.6966,647.6795 L508.7296,634.3805 C508.7296,634.3805 506.8926,622.6195 504.3496,623.7405 C501.8066,624.8615 492.1556,624.4975 492.1556,624.4975 L482.1166,645.8675 L473.1696,656.5485 L464.0436,667.4415 L464.2206,673.6145 L477.9216,684.4245 L531.6816,687.9545 L551.0496,688.6925 L576.4696,699.9235 L594.4756,690.5455 L615.9646,698.1505 L629.2156,671.5365 L659.1946,648.8335 L670.7386,626.6535 L669.4286,608.9955 L664.6056,604.8695 L654.6626,596.3635 L619.4076,604.2135 Z" id="Fill-15" fill="#DFAE7D"></path>
            <path d="M333.8724,409.1827 C333.9954,403.5867 334.6384,398.1667 336.2374,392.4617 C337.8704,386.6987 340.4054,381.3747 343.6534,376.5347 C346.9214,371.7107 350.9044,367.3467 355.6404,363.7247 C360.3534,360.1097 372.5904,353.1137 385.8184,354.7307 C387.3484,354.9277 396.2654,357.2637 399.1474,358.8397 C402.0134,360.4107 404.7514,362.5647 406.8354,365.1587 C408.9374,367.7347 410.4524,370.5787 411.4224,373.3617 C412.3904,376.1567 412.8404,378.8777 413.2664,381.4687 C416.0334,398.3227 420.7974,404.1797 425.4114,414.4787 C427.2904,418.6757 424.6484,423.5297 420.0964,424.1717 C416.4894,424.6807 412.1754,425.7307 407.6954,427.8037 C403.5364,429.7287 399.7944,432.3597 395.8604,434.9407 C391.9124,437.4847 387.8584,440.1827 383.2534,442.5647 C378.6784,444.9577 373.4504,447.0367 367.6434,448.0007 C364.7494,448.5147 361.1974,448.6937 357.6094,448.0537 C353.9964,447.4307 350.2634,445.8177 347.1624,443.4957 C344.0514,441.1767 341.5804,438.2667 339.8444,435.3007 C338.0764,432.3317 336.8804,429.3177 336.0164,426.3657 C334.2974,420.4537 333.8084,414.7597 333.8724,409.1827" id="Fill-17" fill="#753E3E"></path>
            <path d="M363.3206,374.9171 C370.6946,369.1071 380.3846,369.1091 384.9646,374.9211 C389.5436,380.7331 381.2036,379.9091 373.8286,385.7191 C366.4546,391.5291 362.8386,401.7731 358.2586,395.9611 C353.6796,390.1491 355.9456,380.7271 363.3206,374.9171" id="Fill-19" fill="#FEFEFE"></path>
            <path d="M709.7992,377.1089 C709.1622,371.7559 708.0442,366.6199 705.9832,361.2999 C703.8842,355.9259 700.9612,351.0579 697.4002,346.7189 C693.8212,342.3979 689.5992,338.5829 684.7242,335.5499 C679.8702,332.5219 674.3162,330.2669 668.3852,329.3789 C666.8882,329.2149 665.3942,329.0719 663.9082,328.9499 C662.4012,328.9559 660.8952,328.9759 659.4032,329.0459 C657.9112,329.2319 656.4292,329.4799 654.9632,329.7229 C653.5152,330.0529 652.0982,330.4979 650.6882,330.9039 C647.9112,331.8119 645.1842,333.1179 642.5662,334.8959 C639.9652,336.6669 637.5402,338.9849 635.7822,341.6649 C634.0062,344.3289 632.8172,347.1949 632.1452,349.9529 C631.4772,352.7209 631.2972,355.3719 631.1292,357.8949 C630.0362,374.3069 626.0122,380.3609 622.5432,390.6619 C621.1302,394.8579 624.1112,399.2659 628.5352,399.4599 C632.0402,399.6139 636.2732,400.2209 640.7582,401.7939 C644.9232,403.2549 648.7542,405.4289 652.7642,407.5389 C656.7842,409.6129 660.9192,411.8229 665.5552,413.6809 C670.1622,415.5499 675.3652,417.0589 681.0212,417.4459 C683.8432,417.6699 687.2642,417.5129 690.6442,416.5669 C694.0502,415.6349 697.4802,413.7439 700.2362,411.2299 C703.0042,408.7189 705.1032,405.7019 706.4922,402.6969 C707.9122,399.6889 708.7802,396.6879 709.3342,393.7779 C710.4352,387.9529 710.3762,382.4489 709.7992,377.1089" id="Fill-21" fill="#753E3E"></path>
            <path d="M652.1957,354.1202 C659.5447,347.6082 669.6617,347.0252 674.7937,352.8162 C679.9257,358.6082 671.1687,358.2512 663.8197,364.7632 C656.4717,371.2742 653.3147,382.1882 648.1827,376.3972 C643.0507,370.6052 644.8467,360.6322 652.1957,354.1202" id="Fill-23" fill="#FEFEFE"></path>
            <path d="M88.4955,226.5015 C88.4955,226.5015 68.5875,244.6035 66.3035,270.4155 C66.0855,272.8765 68.2585,274.8855 70.7015,274.5165 L117.1715,267.5065 L125.9385,303.6585 C126.4865,305.9185 128.9035,307.1735 131.0675,306.3225 L167.3415,292.0615 C167.3415,292.0615 207.8255,316.5325 213.5345,326.5135 C219.3785,336.7285 203.9905,300.9215 197.7055,285.9195 C236.8285,302.0845 257.8125,287.0645 257.8125,287.0645 L280.1295,277.0865 C280.1295,277.0865 238.3155,278.9345 186.7275,230.4465 C174.3235,218.7895 156.7085,197.4055 128.0995,199.4885 C109.7075,200.8275 88.4955,226.5015 88.4955,226.5015" id="Fill-25" fill="#FEFEFE"></path>
            <path d="M807.6283,159.8629 C807.6283,159.8629 815.9673,177.2789 817.0603,197.8999 C817.1733,200.0329 814.6723,201.6109 812.1953,200.9459 L787.8303,194.4129 L782.5563,215.0019 C781.9943,217.1939 778.8313,218.1529 776.6623,216.7899 L759.7233,206.1419 C759.7233,206.1419 735.6983,237.5519 731.8283,245.4679 C727.8673,253.5689 717.2473,234.1009 721.5083,222.2039 C694.9873,235.0239 701.8153,214.1819 701.8153,214.1819 L690.0813,221.2279 C690.0813,221.2279 715.0303,207.7339 750.0003,169.2809 C758.4073,160.0349 767.2993,136.8219 786.6913,138.4739 C799.1583,139.5359 807.6283,159.8629 807.6283,159.8629" id="Fill-27" fill="#FEFEFE"></path>
            <path d="M293.7874,274.8043 C292.6434,267.4513 285.7564,262.4173 278.4034,263.5603 L277.4534,263.7083 C269.0324,265.0173 260.9464,264.7673 253.2174,262.6473 C245.4754,260.5793 237.9874,256.6903 230.6754,251.5303 C223.3494,246.3873 216.2704,240.0243 209.0754,233.2383 C201.8724,226.4403 194.6044,219.1403 186.4444,212.0513 C182.3674,208.5043 178.0464,205.0143 173.2974,201.7693 C168.5584,198.5313 163.3514,195.5283 157.5324,193.2723 C151.7304,191.0423 145.2474,189.6323 138.7424,189.6823 C132.2354,189.7733 125.9164,191.2693 120.3924,193.6783 C114.8604,196.1303 109.9804,199.2613 105.6754,202.8153 C103.5174,204.5863 101.4694,206.4253 99.5294,208.3313 C97.6054,210.2583 95.7754,212.2403 94.0174,214.2543 C92.2654,216.2693 90.6034,218.3483 89.0124,220.4573 C87.4074,222.5553 85.8864,224.7043 84.4324,226.8873 C81.5084,231.2393 78.8194,235.7103 76.4044,240.3323 C84.4294,233.6933 92.3264,227.1473 100.5934,221.6063 C102.6494,220.2173 104.7364,218.9103 106.8324,217.6793 C108.9114,216.4263 111.0244,215.2883 113.1434,214.2603 C117.3924,212.2323 121.6354,210.5653 125.8014,209.7503 C129.9454,208.8643 133.9114,208.7403 137.6204,209.4243 C141.3364,210.0383 144.8794,211.4063 148.3604,213.4313 C155.3524,217.4243 162.0654,223.7533 168.7134,230.7293 C175.3724,237.7353 182.0384,245.4173 189.3244,253.0463 C196.6024,260.6803 204.5364,268.3163 213.8594,275.0753 C218.5274,278.4333 223.5404,281.5743 228.9614,284.2163 C231.2614,285.3513 233.6404,286.3873 236.0754,287.3223 C234.7314,287.3863 233.3764,287.4223 232.0044,287.4163 C228.6424,287.4623 225.2054,287.2823 221.7434,286.9453 C218.2734,286.6373 214.7654,286.1953 211.2674,285.5813 C209.5154,285.2873 207.7544,284.9833 206.0094,284.6223 L203.4034,284.0603 C202.5634,283.8753 201.6404,283.6273 200.9214,283.4773 L199.0394,283.0853 C197.6414,282.7983 196.1344,283.0593 194.8664,283.9323 C192.3964,285.6343 191.7734,289.0163 193.4754,291.4863 C195.4624,294.3693 197.4444,297.3743 199.3874,300.3543 C201.3724,303.3253 203.2954,306.3323 205.2134,309.3483 C207.1524,312.3573 209.0144,315.4053 210.8534,318.4783 C212.6584,321.5693 214.4844,324.6583 215.9974,327.9553 C215.6814,324.3263 214.9094,320.7233 214.0294,317.1833 C213.1654,313.6273 212.1284,310.1273 211.0464,306.6453 C210.3924,304.5713 209.7034,302.5113 209.0014,300.4553 C211.9674,301.7073 214.9874,302.8733 218.0844,303.9023 C221.9174,305.1273 225.8464,306.1993 229.9054,307.0243 C233.9644,307.8203 238.1494,308.3463 242.4694,308.5503 C243.5444,308.6173 244.6404,308.6163 245.7324,308.6373 C246.8494,308.6253 247.8864,308.6003 249.0894,308.5363 C251.6534,308.3613 254.1174,307.9813 256.4754,307.4283 C261.1954,306.3203 265.5304,304.6523 269.5994,302.6123 C273.6794,300.5813 277.4684,298.1533 281.1194,295.3303 C282.9344,293.9003 284.7054,292.3653 286.4514,290.6183 C288.1984,288.8743 289.9214,286.9483 291.6234,284.4383 C293.4604,281.7193 294.3314,278.3023 293.7874,274.8043" id="Fill-29" fill="#753E3E"></path>
            <path d="M336.6664,92.5929 C308.7684,138.3589 312.0754,222.9079 313.4224,244.2619 C317.4014,247.5259 325.2754,253.3169 338.0184,259.9949 C351.1234,266.8639 371.4364,275.6979 400.2714,283.6019 C397.5914,270.3039 394.4754,256.7849 391.4174,243.5619 C381.2664,199.6539 370.7694,154.2509 376.6134,116.7229 C380.4404,92.1519 398.1224,68.0879 417.1434,48.5679 C412.2184,50.5619 407.1814,52.6679 402.0864,54.8749 C356.5724,74.5949 339.5504,87.8629 336.6664,92.5929" id="Fill-31" fill="#EC2024"></path>
            <path d="M648.2406,237.8038 L648.2396,237.8038 C643.7276,243.4578 638.8986,248.8168 633.8856,253.7308 C604.6846,282.3548 563.7686,297.6928 512.2756,299.3178 C476.3256,300.4498 444.1996,294.3558 428.0916,290.5748 C424.9156,273.0228 420.7726,255.1088 416.7496,237.7048 C406.7126,194.2928 397.2316,153.2878 402.3026,120.7248 C407.9366,84.5588 460.5096,42.4318 482.7896,27.4738 C501.6546,23.8178 526.7336,27.0508 555.5366,36.8748 C585.9456,47.2458 611.3896,61.8028 618.4646,66.0168 C623.9166,69.2658 634.3616,80.9508 643.0536,122.7158 C649.3626,153.0338 652.7806,188.7918 655.7966,220.3408 L656.2656,225.2358 L656.2866,225.4528 C654.0656,229.7408 651.3686,233.8838 648.2406,237.8038 M316.3816,246.4218 L314.5446,244.9998 C314.1886,244.7178 313.8486,244.4448 313.5406,244.1918 C312.1936,222.8378 308.8856,138.2878 336.7846,92.5228 C339.6686,87.7918 356.6906,74.5248 402.2046,54.8048 C407.2706,52.6098 412.2806,50.5148 417.1786,48.5308 C417.1676,48.5428 417.1556,48.5548 417.1426,48.5678 C398.1226,68.0878 380.4406,92.1518 376.6136,116.7228 C370.7686,154.2508 381.2656,199.6538 391.4176,243.5618 C394.4676,256.7488 397.5736,270.2298 400.2486,283.4918 C371.4896,275.5978 351.2186,266.7828 338.1356,259.9248 C327.9206,254.5708 320.8406,249.7898 316.3816,246.4218 M871.5916,170.7078 C871.2976,158.3518 869.6756,145.7748 865.9986,133.1848 C864.0916,126.9038 861.7016,120.6238 858.5066,114.4888 C856.9196,111.4278 855.1166,108.4108 853.1096,105.4728 C851.1306,102.5268 848.8856,99.6738 846.4476,96.9518 C841.5536,91.5228 835.7146,86.6538 829.2296,82.8468 C825.9916,80.9318 822.5846,79.3478 819.1356,77.9508 C815.6646,76.6318 812.1416,75.4948 808.5946,74.7148 C806.8246,74.2968 805.0526,73.9958 803.2846,73.6858 C801.5246,73.4548 799.7496,73.1548 798.0056,73.0338 L795.3806,72.8098 L792.7796,72.6968 C791.0386,72.6098 789.3346,72.6498 787.6246,72.6728 C780.8426,72.8238 773.9386,73.6268 767.1236,75.4088 C760.3226,77.1508 753.6336,79.7398 747.5336,83.2078 C741.3936,86.6098 735.8376,90.7928 730.9396,95.3328 C726.0186,99.8768 721.7616,104.7888 717.9716,109.8128 C714.1726,114.8428 710.8646,119.9888 707.8476,125.1598 C695.9546,145.6068 688.3196,166.2498 678.3566,185.0218 C670.6536,114.2258 660.1896,60.6108 631.7706,43.6798 C616.6696,34.6838 540.3676,-8.4042 480.5816,1.4578 C478.6296,1.7798 476.6936,2.1578 474.7786,2.5958 C473.3306,2.9268 471.9506,3.5088 470.6976,4.3068 C470.7006,4.3048 470.7076,4.3008 470.7106,4.2988 C471.9906,3.4658 473.4086,2.8658 474.8966,2.5248 C476.8116,2.0868 478.7476,1.7088 480.6996,1.3878 C478.5796,1.4098 476.4166,1.7988 474.2736,2.5798 C458.3376,5.2028 424.3436,16.8768 391.8676,30.9488 C348.5866,49.7008 322.5846,65.8648 314.5836,78.9898 C283.7156,129.6288 285.8036,215.3308 287.3946,242.8718 C287.0036,242.6458 286.6086,242.4238 286.2206,242.1908 C280.9646,238.8268 276.0106,234.7868 271.3216,230.2708 C266.6166,225.7878 262.0486,221.0388 257.5886,216.1028 C239.6586,196.4118 222.3956,175.0758 200.9686,156.0638 C195.5896,151.3358 189.9536,146.7438 183.9316,142.4218 C177.8926,138.1338 171.4576,134.1208 164.4906,130.6668 C157.5296,127.2268 150.0306,124.3058 142.0266,122.4088 C134.0446,120.4758 125.5616,119.5948 117.0806,120.0148 C108.5946,120.3928 100.1856,122.1438 92.3136,124.8418 C84.4076,127.5228 77.1256,131.2818 70.4166,135.5028 C63.7146,139.7548 57.5086,144.4918 51.8786,149.5778 C48.9686,152.0748 46.3826,154.7608 43.6756,157.3808 C42.3376,158.7098 41.0416,160.1678 39.7266,161.5588 C38.3956,162.9478 37.1456,164.4118 35.9146,165.8918 C25.9156,177.6148 17.8866,191.0108 11.9626,205.1498 C6.0876,219.3268 2.4286,234.2798 0.8546,249.3188 C0.0536,256.8408 -0.1554,264.3938 0.1076,271.9068 C0.3516,279.4208 1.1566,286.8958 2.4046,294.2818 C3.6856,301.6628 5.4366,308.9608 7.7346,316.0958 C10.0436,323.2258 12.8506,330.2058 16.1866,336.9598 L18.7896,341.9818 C19.7186,343.6328 20.6816,345.2538 21.6376,346.8908 C24.1186,350.7978 26.8796,354.4938 30.0576,357.5038 C33.1516,360.6578 36.5536,363.1758 39.9676,365.5158 C41.7006,366.5918 43.4436,367.6638 45.2096,368.6098 L47.8716,369.9548 C48.7566,370.4108 49.6436,370.8438 50.5416,371.2118 C64.8446,377.5568 79.3536,380.0268 93.5856,381.0908 C107.8426,382.0138 121.9336,381.3408 135.7396,379.2148 C142.6406,378.1708 149.4646,376.7108 156.1526,374.8488 C162.8226,372.9358 169.3976,370.6438 175.5346,367.5608 C168.7556,368.6268 162.0286,369.1768 155.3046,369.3458 C148.5916,369.5508 141.8946,369.3658 135.2526,368.9688 C121.9716,368.0948 108.8396,366.2668 96.2686,363.1998 C89.9926,361.6698 83.8476,359.8768 78.0206,357.6278 C72.2046,355.3808 66.6406,352.8378 61.7536,349.7528 C56.8596,346.6878 52.6476,343.1718 49.7206,339.3748 C48.1536,337.5208 47.1626,335.5108 46.1996,333.5898 L44.3956,329.4558 L42.7126,325.2548 C40.5716,319.6028 38.8536,313.7598 37.5516,307.8208 C36.2336,301.8858 35.2656,295.8678 34.6976,289.8178 C33.5276,277.7208 33.8546,265.5228 35.6356,253.6558 C37.4906,241.8008 40.7376,230.2638 45.5266,219.4948 C47.9396,214.1208 50.6766,208.9158 53.7906,203.9528 C56.8596,198.9618 60.3496,194.2438 64.1546,189.7888 C65.0986,188.6688 66.0256,187.5338 67.0476,186.4778 C68.0596,185.4048 68.9986,184.3098 70.0626,183.2458 C72.2256,181.1518 74.3186,178.9178 76.5616,177.0008 C80.9146,172.9098 85.5066,169.3598 90.1806,166.2478 C94.8436,163.1058 99.6556,160.5188 104.5386,158.6618 C109.4186,156.7628 114.3786,155.5838 119.4246,155.0618 C124.4726,154.5608 129.6346,154.7868 134.9066,155.6918 C140.1716,156.6198 145.5466,158.2128 150.9136,160.4048 C156.2846,162.5878 161.6586,165.3178 166.9716,168.4368 C172.3056,171.5298 177.5776,175.0208 182.7796,178.7698 C187.9626,182.5448 193.1666,186.4728 198.3036,190.5958 C203.4506,194.7108 208.5266,199.0168 213.6956,203.3208 L229.2276,216.4508 C234.4926,220.8158 239.7916,225.2208 245.2856,229.4928 C250.8126,233.7258 256.4546,237.9208 262.4716,241.7418 C268.4796,245.5408 274.8786,249.0708 281.8706,251.5428 C282.7276,251.8708 283.6536,252.1068 284.5366,252.3878 C285.4256,252.6628 286.3106,252.9338 287.2456,253.1208 C287.6046,253.1998 287.9606,253.2818 288.3156,253.3628 C288.8386,255.5618 289.9196,257.5998 291.4816,259.2618 C292.8566,260.7248 324.0476,292.9788 412.2816,313.3338 C412.6216,313.4568 412.9676,313.5718 413.3206,313.6668 C413.3756,313.6818 413.4356,313.6978 413.4906,313.7128 C427.2516,317.4258 461.8276,325.4598 503.2266,325.4598 C506.4756,325.4598 509.7696,325.4098 513.0956,325.3048 C571.3156,323.4668 618.0796,305.6328 652.0856,272.2988 C657.8506,266.6478 663.3946,260.4978 668.5626,254.0198 C673.7366,247.5368 678.0526,240.5558 681.3926,233.2718 C682.3486,231.1868 682.7366,228.8858 682.5156,226.6028 L681.6786,217.8668 C681.3866,214.8238 681.0956,211.8068 680.8026,208.8118 C685.1736,204.7318 689.2106,200.3268 692.9826,195.8298 C700.4806,186.7738 707.0726,177.2828 713.3526,167.9688 C719.6496,158.6758 725.6746,149.5138 732.0186,141.2288 C738.3586,132.9568 745.0026,125.5138 752.1776,120.0648 C759.3226,114.5228 766.8526,111.1258 775.0086,109.5598 C779.0796,108.7778 783.3716,108.4528 787.7636,108.5698 C792.1166,108.7178 796.2726,109.1608 800.0466,110.2008 C801.9446,110.6958 803.7376,111.3238 805.4816,112.0158 C807.1856,112.7738 808.8536,113.5658 810.4046,114.5428 C813.5286,116.4518 816.3866,118.8068 818.9516,121.7018 C820.2336,123.1478 821.4926,124.6688 822.6316,126.3628 C823.7906,128.0308 824.8816,129.8098 825.8746,131.7068 C827.9376,135.4438 829.6286,139.6248 831.0846,143.9988 C833.9626,152.8018 835.6906,162.5078 836.5106,172.4688 C837.3176,182.4388 837.2606,192.6928 836.4006,202.9028 C835.5646,213.1128 833.9016,223.3108 831.3946,233.0878 C830.7666,235.5318 830.0446,237.9228 829.3066,240.2938 C828.9256,241.4708 828.5376,242.6438 828.1196,243.7908 C827.9166,244.3898 827.7086,244.9108 827.5026,245.4368 L826.8846,247.0318 C825.1126,251.3148 822.7676,255.6448 820.1056,259.9038 C817.4256,264.1568 814.4016,268.3328 811.1296,272.3808 C807.8746,276.4468 804.3286,280.3418 800.6026,284.1008 C796.9026,287.8958 792.9486,291.4678 788.8406,294.8918 C784.7406,298.3348 780.4046,301.5018 775.9096,304.4898 C766.8726,310.3758 757.0586,315.2978 745.9376,317.7038 C751.5576,318.6238 757.4206,318.4998 763.2156,317.7948 C769.0106,317.0448 774.7406,315.6528 780.3236,313.8108 C791.5176,310.1438 802.1176,304.7358 812.0556,298.2238 C821.9316,291.6138 831.2576,283.9578 839.4596,274.6888 C843.5706,270.0578 847.3916,265.0158 850.8006,259.3878 L852.0246,257.2168 C852.4346,256.4888 852.8446,255.7558 853.1906,255.0688 C853.9296,253.6718 854.6226,252.2668 855.3036,250.8588 C856.6496,248.0438 857.8816,245.1958 859.0186,242.3348 C863.5596,230.8888 866.7166,219.1478 868.8066,207.1968 C869.8476,201.2208 870.6266,195.1898 871.0846,189.1058 C871.5796,183.0248 871.7396,176.8888 871.5916,170.7078" id="Fill-33" fill="#753E3E"></path>
            <path d="M664.5131,238.2007 C654.0481,255.9307 627.3791,292.7237 581.5261,303.2347 C483.3151,325.7487 381.4531,296.0717 381.4531,296.0717 C381.4531,296.0717 466.5041,366.4867 515.3001,378.6937 C564.0951,390.8997 799.0381,284.7507 770.5951,266.9387 C750.7481,254.5117 725.7451,244.9527 705.5921,238.4757 C685.1431,231.9027 669.6871,228.5027 669.6871,228.5027 C669.6871,228.5027 667.9981,232.2937 664.5131,238.2007" id="Fill-35" fill="#EC2024"></path>
            <path d="M759.4974,267.5416 C759.4924,267.5566 759.4624,267.6016 759.4404,267.6366 C759.4844,267.5486 759.5034,267.5286 759.4974,267.5416 M816.4764,166.8626 C815.5234,162.2576 814.2854,157.6876 812.7154,153.0706 C811.0764,148.4756 809.1204,143.8556 805.9214,139.2406 C804.2734,136.9656 802.2614,134.6726 799.4894,132.6756 C796.7584,130.6826 793.0324,129.1266 789.1554,128.8186 C785.2754,128.4866 781.6204,129.3096 778.5964,130.4416 C775.5504,131.5946 772.9654,133.0566 770.6194,134.5846 C768.2754,136.1116 766.1744,137.7476 764.2164,139.4206 C762.2484,141.0906 760.4034,142.7916 758.6344,144.5046 C755.0854,147.9256 751.8234,151.4146 748.6894,154.9166 C742.4294,161.9146 736.5964,168.9196 730.7734,175.7096 C724.9424,182.4826 719.1664,189.0766 713.1724,195.1236 C710.1924,198.1616 707.1574,201.0536 704.0674,203.7506 C700.9954,206.4666 697.8374,208.9556 694.6534,211.1916 C691.2264,213.5946 687.7394,215.6456 684.2354,217.2906 C683.3894,217.0716 682.5504,216.8376 681.7004,216.6246 L677.3174,215.5436 L672.7684,214.4906 C666.4324,213.0206 659.7014,216.0886 656.7984,222.2056 L656.5784,222.6676 L655.7934,224.3226 L654.8234,226.2736 C654.1534,227.5886 653.4404,228.9136 652.7034,230.2316 C651.2284,232.8716 649.6454,235.4856 647.9854,238.0536 C644.6594,243.1916 641.0004,248.1246 637.1444,252.8686 C633.2684,257.5966 629.0924,262.0546 624.6494,266.1826 C620.2434,270.3526 615.5614,274.1996 610.6094,277.6256 C605.6444,281.0276 600.4774,284.1256 595.0474,286.7136 C592.3344,288.0076 589.5644,289.1936 586.7374,290.2386 C585.3204,290.7496 583.9064,291.2846 582.4694,291.7496 C581.7554,292.0006 581.0304,292.2176 580.3084,292.4406 L579.2224,292.7756 L578.0544,293.0716 C574.9134,293.8276 571.7944,294.6856 568.6274,295.3656 L563.8764,296.3956 L561.4994,296.9116 L559.1044,297.3596 C555.9084,297.9326 552.7294,298.6296 549.5074,299.1116 C546.2944,299.6456 543.0784,300.1886 539.8394,300.6016 C526.9024,302.3766 513.8184,303.5696 500.6594,304.1566 L490.7764,304.4886 C487.4784,304.5336 484.1754,304.6546 480.8704,304.6276 L475.9104,304.6316 L470.9484,304.5586 C467.6384,304.5216 464.3264,304.4246 461.0114,304.3336 C447.7574,303.8746 434.4744,302.9766 421.2054,301.6076 C414.5704,300.9226 407.9384,300.1286 401.3054,299.2466 C394.6764,298.3386 388.0594,297.2976 381.4534,296.0716 C387.7444,298.4536 394.1794,300.4426 400.6394,302.3526 C407.1004,304.2726 413.6244,305.9866 420.1884,307.5596 C433.3174,310.7106 446.6174,313.2476 460.0354,315.2036 C466.7444,316.1816 473.4834,317.0146 480.2504,317.6536 C487.0154,318.3246 493.8074,318.8406 500.6164,319.1716 C514.2374,319.7986 527.9424,319.8186 541.6574,318.9576 C545.0904,318.7896 548.5174,318.4866 551.9474,318.1886 C555.3814,317.9316 558.8064,317.5066 562.2324,317.1046 L564.8034,316.7966 L567.3674,316.4186 L572.4984,315.6586 C575.9224,315.1576 579.3214,314.4686 582.7394,313.8786 L585.3804,313.3886 C586.2834,313.2166 587.1884,313.0486 588.0854,312.8446 C589.8874,312.4636 591.6814,312.0366 593.4634,311.5636 C597.0244,310.6036 600.5424,309.4656 604.0084,308.1836 C610.9344,305.6116 617.6624,302.4546 623.9954,298.6706 C630.3444,294.9116 636.3694,290.6496 642.0254,285.9866 C647.6434,281.2766 652.9074,276.1936 657.8044,270.8066 C662.7244,265.4346 667.2104,259.7086 671.3434,253.7246 C673.2804,250.9196 675.1354,248.0526 676.9164,245.1126 C678.8494,245.6256 680.7824,246.1356 682.7114,246.6776 C688.1284,248.1896 693.5224,249.8106 698.8774,251.5206 C709.5724,254.9766 720.1724,258.6476 730.4354,262.8646 C738.3614,266.1016 746.0894,269.6706 753.4624,273.5676 C751.6494,275.0656 749.6794,276.5646 747.6304,278.0386 C743.3204,281.1396 738.6884,284.1326 733.9584,287.0396 C729.2304,289.9646 724.3784,292.8016 719.4604,295.5686 C709.6164,301.0996 699.5134,306.3566 689.2884,311.4126 C668.8274,321.5116 647.9454,330.9986 626.7514,339.6046 C605.6044,348.2916 584.1004,356.2246 562.4534,362.5256 C557.0444,364.0816 551.6244,365.5086 546.2274,366.7156 C540.8384,367.9166 535.4454,368.9176 530.2474,369.4706 C527.6554,369.7376 525.1114,369.9196 522.7494,369.8986 C521.5714,369.8906 520.4384,369.8346 519.4134,369.7236 C518.8994,369.6676 518.4114,369.6006 517.9624,369.5206 L517.6344,369.4586 L517.1724,369.3596 L516.2274,369.1556 C511.1734,368.0356 505.9834,366.3636 500.8294,364.4146 C490.4844,360.5326 480.2154,355.6296 470.1034,350.3536 C459.9664,345.0966 449.9864,339.3736 440.0634,333.4966 C435.1164,330.5346 430.1834,327.5296 425.2614,324.4916 C420.3504,321.4376 415.4604,318.3376 410.5714,315.2216 L395.9614,305.7566 C391.1094,302.5626 386.2844,299.3246 381.4534,296.0716 C398.1514,312.3226 415.8164,327.5906 434.3184,341.9296 C443.5704,349.1066 453.0854,355.9836 462.9264,362.5186 C467.8424,365.7946 472.8864,368.9106 478.0284,371.9336 C483.1854,374.9336 488.4454,377.8436 493.9474,380.4636 C499.4504,383.0826 505.1504,385.4916 511.2934,387.4136 L512.4504,387.7676 L513.0404,387.9456 L513.7694,388.1346 C514.7354,388.3716 515.6754,388.5616 516.5964,388.7196 C518.4384,389.0346 520.2004,389.2176 521.9194,389.3336 C525.3524,389.5546 528.6154,389.5226 531.8044,389.3406 C538.1724,388.9726 544.2524,388.1276 550.2424,387.1006 C556.2264,386.0646 562.0994,384.8166 567.9134,383.4466 C579.5424,380.7176 590.9174,377.4236 602.1784,373.8756 C613.4354,370.3226 624.5744,366.4996 635.6194,362.4506 C646.6494,358.3616 657.5904,354.0616 668.4544,349.5606 C679.3154,345.0516 690.1164,340.3786 700.7924,335.3716 C711.4774,330.3816 722.0834,325.1656 732.5944,319.5656 C743.1164,313.9396 753.5064,308.0416 763.8074,300.8726 C766.3874,299.0666 768.9664,297.1696 771.5644,295.0646 C774.1664,292.9406 776.7784,290.6786 779.5124,287.6836 C780.8814,286.1506 782.2924,284.4676 783.7524,282.0756 C784.4794,280.8546 785.2194,279.4896 785.8894,277.6506 C786.5354,275.8336 787.1604,273.5376 787.1384,270.5456 C787.1224,269.0676 786.9214,267.4446 786.4704,265.8296 C786.0254,264.2126 785.3224,262.6266 784.4834,261.2606 C783.6444,259.8876 782.6864,258.7256 781.7294,257.7666 C780.7724,256.8096 779.8424,256.0736 778.9414,255.4426 L778.2834,255.0036 L777.9374,254.7856 L777.4364,254.4736 L776.4344,253.8516 L774.4294,252.6086 C763.7104,246.0946 752.6184,240.9086 741.4624,236.2156 C734.2244,233.2056 726.9354,230.4486 719.5994,227.9026 C724.6144,223.4866 729.1744,218.8016 733.4344,214.0226 C746.3034,199.4826 756.5384,183.8676 766.7254,169.3156 C769.2784,165.7006 771.8164,162.1556 774.3914,158.8286 C776.9564,155.5096 779.6594,152.4526 782.2444,150.0036 C783.5354,148.7936 784.8134,147.7866 785.9344,147.0856 C787.0644,146.3786 787.9354,146.0436 788.6204,145.8586 C789.3064,145.6746 790.0474,145.6246 791.1654,146.0576 C792.2634,146.4826 793.5774,147.3796 794.8694,148.5766 C797.5194,150.9676 800.0154,154.3906 802.2884,158.0056 C804.6164,161.6266 806.6684,165.5676 808.7164,169.5636 C812.7374,177.6016 816.3744,186.0206 820.1354,194.4746 C819.5764,185.2306 818.4184,176.0456 816.4764,166.8626" id="Fill-37" fill="#753E3E"></path>
            <path d="M546.1136,145.3746 C545.5536,142.4086 544.4636,139.9926 542.8396,138.1266 C541.2176,136.2636 539.3836,134.8336 537.3426,133.8416 C535.3006,132.8506 533.1746,132.2446 530.9626,132.0266 C528.7496,131.8086 526.8236,131.8546 525.1886,132.1626 C523.1396,132.5486 521.2046,133.2326 519.3786,134.2126 C517.5506,135.1926 515.7936,136.2676 514.1066,137.4326 L519.6146,171.6676 C521.9666,171.2236 524.8426,170.4706 528.2446,169.4036 C531.6426,168.3406 534.8256,166.8106 537.7876,164.8216 C540.7496,162.8326 543.0966,160.2716 544.8376,157.1356 C546.5756,154.0026 547.0026,150.0806 546.1136,145.3746 M531.7236,189.4796 C528.7556,190.0396 525.9506,190.8866 523.3046,192.0216 L529.2936,227.1206 C530.8856,227.1376 532.4456,227.1366 533.9776,227.1096 C535.5086,227.0876 536.9906,226.9386 538.4256,226.6676 C540.5716,226.2636 542.8806,225.5896 545.3506,224.6456 C547.8196,223.7036 550.0516,222.3296 552.0416,220.5246 C554.0296,218.7186 555.5456,216.4996 556.5846,213.8666 C557.6236,211.2346 557.7776,207.9756 557.0436,204.0876 C556.3096,200.2016 554.9676,197.1696 553.0226,194.9946 C551.0766,192.8186 548.8996,191.2436 546.4906,190.2696 C544.0826,189.2926 541.5536,188.8156 538.9116,188.8376 C536.2666,188.8606 533.8716,189.0746 531.7236,189.4796 M613.4256,203.8576 C614.6246,210.2146 614.4896,215.9086 613.0216,220.9426 C611.5516,225.9776 609.1706,230.4716 605.8716,234.4236 C602.5746,238.3766 598.5706,241.8496 593.8616,244.8376 C589.1526,247.8286 584.1506,250.4176 578.8546,252.6056 C573.5586,254.7946 568.1706,256.6036 562.6916,258.0356 C557.2126,259.4656 552.0616,260.6356 547.2386,261.5456 C542.4896,262.4416 537.5376,263.1986 532.3826,263.8146 C527.2236,264.4316 522.0416,264.7946 516.8286,264.9066 C511.6166,265.0186 506.4246,264.8296 501.2586,264.3356 C496.0906,263.8446 491.1226,262.9386 486.3536,261.6186 L458.2066,113.7336 C462.1626,111.1646 466.4186,108.7156 470.9746,106.3886 C475.5306,104.0616 480.2256,101.9466 485.0606,100.0416 C489.8946,98.1396 494.7536,96.4696 499.6366,95.0316 C504.5186,93.5946 509.2966,92.4356 513.9676,91.5536 C519.4036,90.5276 524.9626,89.8356 530.6436,89.4776 C536.3246,89.1196 541.8826,89.2586 547.3156,89.8986 C552.7476,90.5396 557.9276,91.7226 562.8536,93.4496 C567.7766,95.1776 572.2596,97.6026 576.2996,100.7246 C580.3376,103.8486 583.7626,107.7216 586.5796,112.3436 C589.3936,116.9676 591.4176,122.5336 592.6446,129.0406 C593.4546,133.3296 593.5986,137.4646 593.0836,141.4466 C592.5656,145.4296 591.4406,149.1306 589.7066,152.5506 C587.9736,155.9696 585.6586,159.0436 582.7646,161.7706 C579.8686,164.4986 576.4486,166.7496 572.5016,168.5246 C577.7236,168.8886 582.6216,169.9446 587.1946,171.6986 C591.7666,173.4516 595.8306,175.8576 599.3806,178.9136 C602.9306,181.9716 605.9176,185.6096 608.3396,189.8316 C610.7606,194.0536 612.4576,198.7286 613.4256,203.8576" id="Fill-39" fill="#753E3E"></path>
            <path d="M502.4349,524.796 C499.8559,522.963 501.1289,518.905 504.2939,518.867 C520.9329,518.671 554.1839,517.866 570.5519,514.582 C592.9089,510.096 625.1539,492.776 625.1539,492.776 C625.1539,492.776 639.4179,541.172 569.7749,559.708 C557.8749,562.875 519.3529,536.819 502.4349,524.796" id="Fill-41" fill="#EB77AE"></path>
            <g id="Group-45" transform="translate(120.000000, 318.996000)">
                <mask id="mask-2" fill="white">
                    <use xlink:href="#path-1"></use>
                </mask>
                <g id="Clip-44"></g>
                <path d="M545.0424,303.882 C542.9484,310.059 539.4474,315.204 535.2044,319.733 C530.9244,324.236 525.8994,328.151 520.4784,331.621 C517.7734,333.361 514.9624,334.983 512.0994,336.482 C510.6734,337.238 509.2294,337.961 507.7864,338.632 L505.6454,339.61 L504.6074,340.053 L504.1174,340.252 L503.8984,340.336 C503.8634,340.348 503.8004,340.373 503.7824,340.377 L497.2844,346.601 L489.5064,361.452 L488.5114,363.391 C486.0954,362.037 483.6884,360.67 481.2694,359.323 C476.6444,356.758 470.7454,356.934 466.2054,360.271 L466.0714,360.369 C464.4144,361.587 462.7824,362.839 461.1464,364.084 C459.5034,365.322 457.8754,366.579 456.2574,367.849 C455.5184,368.423 454.7854,369.007 454.0504,369.585 L447.5344,365.175 C445.0814,363.5 442.6344,361.819 440.2514,360.141 L436.7714,357.649 C435.6354,356.834 434.5804,356.026 433.8604,355.463 L432.7114,354.563 C429.5524,352.107 425.2134,351.336 421.2214,352.912 C407.9104,358.165 394.2454,361.693 380.2064,361.571 C373.1994,361.461 366.0854,360.425 358.9744,358.247 C354.9984,357.046 351.0514,355.468 347.1064,353.617 C350.5684,350.111 353.7844,346.368 356.6674,342.37 C360.8954,336.507 364.3554,330.113 366.7814,323.422 C367.3894,321.713 367.9294,319.986 368.3994,318.247 C369.8954,318.244 371.3924,318.197 372.8874,318.104 C376.5614,317.892 380.2044,317.409 383.7844,316.684 C383.8284,316.95 383.8684,317.214 383.9204,317.486 C384.2254,318.519 384.5794,319.544 384.9974,320.551 C386.6684,324.575 389.2484,328.357 392.6484,331.385 C396.0264,334.429 400.1544,336.793 404.6804,338.13 C405.1644,338.271 405.6984,338.342 406.2304,338.318 L407.1714,338.275 L420.1254,337.679 L433.0714,336.999 C441.7024,336.546 450.3324,336.083 458.9554,335.556 C460.4414,335.461 461.8424,335.03 463.0914,334.349 C463.2734,334.311 463.4614,334.278 463.6434,334.24 C465.2814,333.889 466.8974,333.491 468.5054,333.049 C471.7244,332.178 474.8844,331.034 478.0044,329.67 C481.1224,328.309 484.1974,326.674 487.1034,324.606 C490.0014,322.548 492.8004,320.102 495.0474,317.052 C497.2984,314.037 499.0254,310.46 499.6714,306.761 C499.8484,305.844 499.9594,304.923 500.0204,304.011 C500.0854,303.099 500.0694,302.248 500.0794,301.538 L500.0444,297.048 C500.0344,296.142 500.0184,295.234 500.0044,294.326 C502.5814,294.739 505.2164,294.953 507.8814,294.923 C509.0214,294.889 510.1624,294.83 511.2994,294.746 C512.4314,294.615 513.5704,294.517 514.6924,294.33 C516.9364,293.942 519.1514,293.434 521.2904,292.756 C525.5704,291.392 529.5604,289.467 533.1314,287.16 C534.4254,286.334 535.6464,285.445 536.8344,284.529 C538.3404,286.175 539.9364,287.747 541.5804,289.276 C543.3534,290.889 545.2224,292.397 547.1284,293.862 C547.1254,293.892 547.1244,293.922 547.1214,293.951 C546.8014,297.473 546.1024,300.803 545.0424,303.882 M406.3244,308.554 C416.4484,303.181 425.1854,295.978 432.4714,287.821 C436.1204,283.74 439.4104,279.403 442.3014,274.839 C442.6694,274.257 443.0164,273.665 443.3734,273.078 C443.6244,277.543 443.8904,282.007 444.1944,286.47 C444.6484,292.993 445.1314,299.515 445.7074,306.034 C445.9974,309.441 446.3124,312.847 446.6424,316.253 C441.5244,316.944 436.4074,317.645 431.2914,318.354 L418.4504,320.136 L406.2244,321.914 C404.4544,321.611 402.6814,321.056 400.9854,320.196 C398.7164,319.004 396.5784,317.319 394.8384,315.158 L394.2064,314.326 L393.9364,313.926 C398.2384,312.458 402.3924,310.652 406.3244,308.554 M455.7044,227.262 C455.7964,227.175 455.8944,227.095 455.9974,227.023 C456.0094,227.015 456.0174,227.01 456.0284,227.002 L455.9504,227.066 L455.8034,227.186 L455.7294,227.246 C455.7084,227.263 455.6614,227.302 455.7044,227.262 M482.6654,288.111 C486.2014,290.173 490.1244,291.87 494.2824,293.057 C493.9444,294.06 493.6044,295.063 493.2714,296.067 L491.8624,300.37 C491.4104,301.885 491.0364,302.821 490.4644,303.849 C489.3514,305.826 487.8904,307.429 486.1064,308.753 C484.3114,310.058 482.2614,311.154 479.9984,312.011 C477.7294,312.851 475.3104,313.527 472.7994,314.037 C471.4404,314.316 470.0524,314.527 468.6504,314.704 C468.7294,311.539 468.7944,308.375 468.8384,305.212 C468.9504,298.669 468.9674,292.129 468.9574,285.59 C468.9494,282.715 468.9244,279.84 468.8934,276.966 C472.7834,281.218 477.3624,285.023 482.6654,288.111 M757.3504,138.842 C756.9684,132.812 756.2884,126.783 755.3334,120.784 C754.3364,114.79 753.0694,108.827 751.4444,102.947 C748.1984,91.194 743.6284,79.758 737.6984,69.121 C731.8244,58.455 724.5824,48.625 716.4084,39.871 C714.3794,37.669 712.2674,35.555 710.1364,33.474 C707.9794,31.419 705.7654,29.435 703.5084,27.517 C701.3394,25.635 698.7414,23.596 696.2284,21.854 C693.6924,20.076 691.0944,18.455 688.4364,17.006 C683.1304,14.093 677.7344,11.597 672.2094,9.595 C666.7014,7.564 661.1374,5.877 655.5144,4.566 C644.2944,1.906 632.9054,0.436 621.5804,0.42 C632.2894,4.054 642.6024,8.253 652.3814,13.201 C662.1194,18.173 671.4014,23.81 679.3394,30.452 C681.3164,32.115 683.2024,33.833 684.9874,35.591 C686.8024,37.378 688.3224,39.118 690.1164,41.17 C693.5704,45.156 696.8384,49.252 699.8544,53.489 C702.8754,57.723 705.6254,62.109 708.1314,66.595 C710.6484,71.074 712.8964,75.675 714.8824,80.368 C722.8634,99.143 726.3714,119.427 726.4174,139.938 C726.4644,160.475 723.1754,181.225 717.8054,201.616 L716.7824,205.426 L715.7254,209.069 C715.3834,210.288 714.9594,211.469 714.5834,212.672 C714.2104,213.876 713.7994,215.062 713.3654,216.235 C711.7084,220.965 709.8494,225.586 707.7074,230.024 C703.4784,238.924 698.3494,247.236 692.2324,254.577 C686.1164,261.917 679.0794,268.334 671.1964,273.557 C663.3164,278.775 654.6304,282.853 645.3604,285.615 C640.7324,287.021 635.9614,288.069 631.1054,288.879 L627.7634,289.441 C626.6924,289.605 625.5204,289.728 624.3204,289.856 C621.9124,290.105 619.3884,290.259 616.8394,290.366 C606.6034,290.793 596.0494,290.444 585.6264,289.393 C575.2074,288.254 564.8154,286.451 554.7694,283.183 C550.8844,281.923 547.0444,280.451 543.2834,278.695 C545.8154,276.018 548.1104,273.223 550.0494,270.284 C552.1704,267.129 554.0224,263.879 555.5614,260.541 C557.1504,257.224 558.4194,253.818 559.5084,250.384 C560.0234,248.653 560.4994,246.925 560.9404,245.191 C561.3204,243.43 561.7184,241.696 562.0144,239.928 C562.3044,238.16 562.5314,236.378 562.7304,234.601 C562.8644,232.795 562.9994,231.005 562.9924,229.171 C561.5814,230.369 560.3134,231.612 559.0424,232.838 C557.7724,234.062 556.5064,235.268 555.3154,236.496 L548.1164,243.579 C543.3964,248.158 538.7874,252.475 534.1644,256.158 C529.5344,259.815 524.9344,262.912 520.4564,264.882 C515.9714,266.884 511.7714,267.853 507.5464,267.929 C503.3214,267.965 498.8744,267.116 494.1934,265.28 C489.5344,263.439 484.7334,260.714 480.0674,257.351 C475.9864,254.38 471.9734,250.949 468.1944,247.113 C468.1864,246.87 468.1804,246.627 468.1714,246.384 L468.1694,246.347 L468.1694,246.323 C468.1424,245.609 468.0434,244.916 467.9064,244.237 C467.9434,244.212 467.9804,244.191 468.0184,244.164 C468.3224,243.945 468.6224,243.719 468.9154,243.487 L469.2484,243.212 L469.8114,242.743 L474.3744,238.971 C480.5214,233.922 486.7294,228.754 492.8394,223.312 C495.8904,220.577 498.9334,217.79 501.9194,214.83 C504.9034,211.861 507.8554,208.782 510.7304,205.245 C512.1624,203.465 513.5794,201.566 514.9544,199.316 C515.6404,198.182 516.3184,196.954 516.9544,195.494 C517.5774,194.016 518.2064,192.364 518.5244,190.057 L518.6214,189.175 C518.6434,188.861 518.6544,188.532 518.6624,188.211 C518.6634,188.067 518.6744,187.849 518.6634,187.766 L518.6344,187.491 L518.5744,186.942 C518.5034,186.186 518.3754,185.556 518.2664,184.875 C518.0064,183.596 517.6954,182.386 517.3474,181.262 C516.6264,179.001 515.8164,176.93 514.8504,174.959 C513.0124,171.002 510.7354,167.406 508.2174,163.977 C505.6524,160.574 502.8744,157.32 499.4074,154.454 C499.0344,158.921 499.1234,163.094 499.2454,167.182 C499.3994,171.249 499.6044,175.222 499.8174,178.956 C499.8704,180.83 499.9714,182.637 499.9384,184.297 C499.9444,185.13 499.8924,185.894 499.8384,186.594 C499.7924,186.905 499.7764,187.266 499.7094,187.506 L499.6704,187.702 L499.6514,187.8 C499.6454,187.841 499.6434,187.747 499.6414,187.728 C499.6364,187.655 499.6414,187.575 499.6464,187.508 C499.6444,187.461 499.6444,187.414 499.6494,187.367 C499.6924,187.034 499.6344,187.274 499.4524,187.609 C499.2714,187.964 498.9694,188.474 498.5954,189.023 C497.8414,190.135 496.8324,191.403 495.7084,192.672 C493.4614,195.229 490.8214,197.83 488.0654,200.37 C485.3054,202.917 482.4224,205.445 479.4704,207.936 C473.5664,212.936 467.4254,217.817 461.2244,222.809 L456.6314,226.513 C456.2814,226.539 455.7774,226.581 455.1634,226.554 C454.5414,226.543 453.8334,226.486 453.0814,226.407 C451.5754,226.269 449.9334,225.982 448.2334,225.673 C444.8334,225.005 441.2504,224.139 437.6474,223.154 C434.0324,222.19 430.3814,221.111 426.7024,220.014 C419.3464,217.801 411.8944,215.477 404.3964,213.074 C400.6574,211.85 396.8654,210.679 393.0974,209.392 C389.2974,208.129 385.5304,206.851 381.6734,205.236 C382.6964,207.081 383.9884,208.767 385.3344,210.382 C386.6854,212.003 388.1344,213.515 389.6114,215 C392.6054,217.909 395.7494,220.652 399.0374,223.164 C405.6044,228.214 412.5814,232.652 419.9444,236.494 C426.9414,240.09 434.1774,243.23 442.2734,245.45 C442.2094,246.06 442.1724,246.677 442.1964,247.307 C442.2214,247.992 442.2514,248.678 442.2764,249.363 C441.0814,250.81 439.8624,252.232 438.6034,253.611 C432.2344,260.625 425.3094,266.92 418.0274,272.329 C410.7364,277.717 403.1074,282.269 395.2494,285.499 C387.3944,288.739 379.3674,290.691 371.3004,291.154 C363.2304,291.628 355.0924,290.607 346.9464,288.267 C345.9344,287.949 344.9074,287.68 343.8954,287.33 L340.8434,286.283 C338.8314,285.479 336.7774,284.737 334.7704,283.806 C330.7264,282.03 326.6904,280.006 322.7074,277.711 C314.6934,273.211 306.8724,267.753 299.0314,261.937 C295.0884,259.04 291.2294,255.957 287.2534,252.882 C285.3104,251.306 283.3264,249.74 281.3114,248.176 C279.3224,246.589 277.3334,244.982 275.2124,243.448 C276.0784,245.898 277.0734,248.278 278.0734,250.673 C279.1604,253.004 280.2514,255.355 281.4334,257.654 C282.6374,259.941 283.8914,262.204 285.2004,264.446 C285.8574,265.568 286.5624,266.652 287.2484,267.758 C287.9304,268.866 288.6344,269.963 289.3734,271.037 C290.8404,273.193 292.3294,275.348 293.9524,277.412 C295.5254,279.516 297.2064,281.55 298.9424,283.549 C299.7924,284.566 300.6824,285.553 301.6034,286.514 L304.3534,289.423 C306.2944,291.267 308.1684,293.2 310.2514,294.937 C314.2924,298.541 318.7164,301.819 323.4234,304.79 C328.1264,307.758 333.1564,310.391 338.5054,312.468 C346.5184,315.651 355.2504,317.653 364.1254,318.134 C363.5304,319.183 362.9194,320.22 362.2724,321.232 C358.7214,326.845 354.4024,331.833 349.6884,336.302 C340.1454,345.168 328.9024,351.859 317.0094,356.915 C305.1124,362.003 292.5444,365.468 279.8094,367.853 C276.6244,368.449 273.4174,368.944 270.2054,369.379 C266.9974,369.837 263.7754,370.215 260.5514,370.538 C254.0984,371.17 247.6154,371.478 241.1414,371.598 C228.1874,371.872 215.2404,370.989 202.4574,369.361 C189.6784,367.645 177.0744,364.976 164.8024,361.429 C140.2824,354.288 117.0854,343.34 97.1534,328.407 C92.1904,324.656 87.3944,320.709 82.8654,316.489 C78.3524,312.256 74.0444,307.818 70.0114,303.145 C61.9684,293.782 54.9734,283.537 49.1874,272.564 C37.6174,250.602 30.8584,225.85 28.3034,200.168 C27.6344,193.747 27.2714,187.266 27.0724,180.748 C26.8914,174.224 26.8494,167.684 27.0924,161.107 C27.2984,154.533 27.6634,147.939 28.2934,141.365 C28.9464,134.798 29.6504,128.21 30.7324,121.688 C31.8174,115.17 33.0154,108.651 34.6244,102.234 C36.1844,95.803 38.0274,89.428 40.3044,83.199 C40.8874,81.651 41.4304,80.07 42.0754,78.546 L43.0154,76.234 L44.0244,73.956 C45.3384,70.889 46.8454,67.918 48.4324,64.96 C51.6454,59.078 55.4744,53.483 59.9684,48.218 C54.0934,51.872 48.7584,56.545 43.9494,61.726 C41.6054,64.361 39.2994,67.07 37.1904,69.922 L35.6154,72.071 L34.1084,74.266 C33.0794,75.722 32.1584,77.233 31.1894,78.73 C23.6774,90.826 18.0084,103.984 13.5274,117.453 C9.0784,130.948 5.8594,144.805 3.6344,158.866 C2.5694,165.899 1.7174,173.014 1.2054,180.159 C0.7174,187.309 0.5614,194.508 0.6684,201.737 C0.8384,216.199 2.5294,230.763 5.6124,245.166 C7.1744,252.364 9.1854,259.495 11.5614,266.529 C13.9794,273.548 16.7714,280.472 20.0094,287.206 C26.4924,300.668 34.6584,313.406 44.2694,324.924 C53.8774,336.445 64.8814,346.765 76.8524,355.63 C100.8074,373.423 128.3214,385.469 156.6114,392.332 C163.6914,394.058 170.8424,395.417 178.0124,396.531 C185.1904,397.594 192.4034,398.328 199.6204,398.807 C214.0544,399.793 228.5344,399.373 242.8664,397.87 C250.0334,397.086 257.1554,395.925 264.2194,394.503 C267.7484,393.768 271.2674,392.994 274.7584,392.093 C278.2464,391.176 281.7164,390.194 285.1554,389.103 C298.9204,384.813 312.2834,379.006 324.6084,371.373 C331.2924,367.21 337.6844,362.464 343.4934,357.108 C346.5764,360.877 350.1324,364.344 354.1174,367.405 C360.8974,372.618 368.9244,376.585 377.4574,378.928 C385.9844,381.354 394.9474,382.144 403.7194,381.777 C409.9514,381.514 416.0964,380.651 422.0964,379.351 C422.9804,380.036 423.8584,380.707 424.7324,381.373 C427.2294,383.259 429.7044,385.084 432.1834,386.901 L439.6194,392.277 L447.1064,397.579 C451.5054,400.68 457.5664,400.903 462.2494,397.662 L462.8944,397.216 C466.2794,394.874 469.6414,392.501 472.9654,390.078 C473.8544,389.439 474.7314,388.783 475.6144,388.136 C479.5854,390.322 483.5504,392.518 487.5304,394.685 L487.8324,394.85 C488.0154,394.948 488.2014,395.044 488.3914,395.135 C495.2144,398.424 503.4114,395.56 506.7014,388.737 L513.9814,373.638 L519.4814,361.999 C519.8024,361.805 520.1354,361.62 520.4474,361.42 C522.2134,360.303 523.9354,359.157 525.6144,357.953 C528.9674,355.534 532.1704,352.917 535.2084,350.072 C541.2524,344.38 546.6984,337.732 550.5984,330.006 C554.5414,322.36 556.6864,313.459 556.0264,304.976 C555.8864,303.077 555.6014,301.222 555.2004,299.415 C555.5034,299.602 555.8054,299.792 556.1084,299.977 C558.6824,301.553 561.3344,302.982 564.0314,304.309 C566.7294,305.637 569.4574,306.914 572.2344,308.05 C575.0164,309.177 577.8254,310.225 580.6594,311.203 C592.0204,315.084 603.7114,317.618 615.7914,318.913 C618.8224,319.229 621.8834,319.444 625.0574,319.561 C626.6494,319.617 628.2674,319.62 629.9804,319.581 L631.2904,319.536 C631.7294,319.512 632.2364,319.492 632.6304,319.456 L634.9624,319.228 C641.1834,318.633 647.4004,317.562 653.5614,316.077 C665.8754,313.097 677.9024,308.142 688.8714,301.38 C699.8484,294.63 709.7254,286.079 718.0214,276.363 C734.7244,256.93 744.9124,233.148 750.4124,209.822 C755.9314,186.936 758.8564,162.993 757.3504,138.842" id="Fill-43" fill="#753E3E" mask="url(#mask-2)"></path>
            </g>
            <path d="M623.7826,659.3726 L623.7946,659.3616 C623.7726,659.3726 623.7736,659.3736 623.7826,659.3726" id="Fill-46" fill="#753E3E"></path>
            <path d="M428.4984,358.96 C426.9684,358.597 425.5774,358.156 424.2064,357.742 C423.5404,357.515 422.8534,357.321 422.1664,357.141 C421.4744,356.964 420.8324,356.745 420.1724,356.557 C418.8694,356.161 417.5754,355.797 416.2864,355.466 C415.6404,355.304 415.0244,355.112 414.4044,354.936 L412.5194,354.462 C407.5734,353.168 402.8664,352.083 398.2054,351.139 C388.9064,349.268 379.8894,347.699 370.5444,346.204 C361.2164,344.707 351.6704,343.226 341.7074,341.258 C336.7254,340.285 331.6394,339.156 326.4044,337.816 C323.7884,337.155 321.1314,336.392 318.4264,335.571 C315.7224,334.743 312.9714,333.845 310.1294,332.644 C312.4774,330.641 314.9284,329.022 317.4344,327.549 C319.9384,326.068 322.5044,324.772 325.1144,323.616 C330.3404,321.339 335.7434,319.608 341.2594,318.43 C352.2874,316.058 363.7954,315.738 375.2064,317.585 C386.5794,319.449 397.9684,323.597 407.7644,330.496 C412.6584,333.907 417.0814,338.108 420.7054,342.874 C421.1524,343.479 421.6204,344.043 422.0364,344.672 C422.4484,345.307 422.8654,345.925 423.2514,346.574 C424.0314,347.858 424.8224,349.091 425.4424,350.487 C426.0964,351.841 426.7384,353.166 427.2334,354.599 C427.7154,356.044 428.1774,357.464 428.4984,358.96" id="Fill-48" fill="#753E3E"></path>
        </g>
    </g>
</svg>